<?xml version="1.0" encoding="UTF-8"?>
<svg width="100" height="100" viewBox="0 0 100 100" fill="none" xmlns="http://www.w3.org/2000/svg">
  <path d="M50 0C22.4 0 0 22.4 0 50C0 77.6 22.4 100 50 100C77.6 100 100 77.6 100 50C100 22.4 77.6 0 50 0Z" fill="#005587"/>
  <path d="M50 20C33.4 20 20 33.4 20 50C20 66.6 33.4 80 50 80C66.6 80 80 66.6 80 50C80 33.4 66.6 20 50 20Z" fill="#D4AF37"/>
  <path d="M50 30C39.0 30 30 39.0 30 50C30 61.0 39.0 70 50 70C61.0 70 70 61.0 70 50C70 39.0 61.0 30 50 30Z" fill="#005587"/>
  <path d="M50 40C44.5 40 40 44.5 40 50C40 55.5 44.5 60 50 60C55.5 60 60 55.5 60 50C60 44.5 55.5 40 50 40Z" fill="white"/>
</svg>
