<?xml version="1.0" encoding="UTF-8"?>
<svg width="100" height="100" viewBox="0 0 100 100" fill="none" xmlns="http://www.w3.org/2000/svg">
  <circle cx="50" cy="50" r="50" fill="#52b788"/>
  <path d="M30 50C30 40 40 30 50 30C60 30 70 40 70 50C70 60 60 70 50 70C40 70 30 60 30 50Z" fill="white"/>
  <path d="M35 50C35 42.5 42.5 35 50 35C57.5 35 65 42.5 65 50C65 57.5 57.5 65 50 65C42.5 65 35 57.5 35 50Z" fill="#52b788"/>
  <path d="M40 50C40 45 45 40 50 40C55 40 60 45 60 50C60 55 55 60 50 60C45 60 40 55 40 50Z" fill="white"/>
  <path d="M20 70C20 70 30 60 50 60C70 60 80 70 80 70" stroke="#52b788" stroke-width="3"/>
  <path d="M15 80C15 80 30 65 50 65C70 65 85 80 85 80" stroke="#52b788" stroke-width="3"/>
</svg>
