<?xml version="1.0" encoding="UTF-8"?>
<svg width="120" height="40" viewBox="0 0 120 40" fill="none" xmlns="http://www.w3.org/2000/svg">
  <path d="M20 0C8.954 0 0 8.954 0 20C0 31.046 8.954 40 20 40C31.046 40 40 31.046 40 20C40 8.954 31.046 0 20 0Z" fill="#005587"/>
  <path d="M28.5 15L20 10L11.5 15V25L20 30L28.5 25V15Z" fill="#D4AF37"/>
  <path d="M20 10V30M11.5 15L20 20L28.5 15M11.5 25L20 20L28.5 25" stroke="white" stroke-width="1.5"/>
  <path d="M50 15H53.5V25H50V15ZM50 10H53.5V13.5H50V10Z" fill="#005587"/>
  <path d="M55 15H58.5V16.5C59.167 15.5 60.3 15 62 15C64.5 15 66 16.5 66 19.5V25H62.5V20C62.5 18.8 62 18 60.75 18C59.5 18 58.5 18.8 58.5 20.5V25H55V15Z" fill="#005587"/>
  <path d="M67.5 20C67.5 17 69.5 15 72.5 15C75.5 15 77.5 17 77.5 20C77.5 23 75.5 25 72.5 25C69.5 25 67.5 23 67.5 20ZM74 20C74 18.5 73.3 17.5 72 17.5C70.7 17.5 70 18.5 70 20C70 21.5 70.7 22.5 72 22.5C73.3 22.5 74 21.5 74 20Z" fill="#005587"/>
  <path d="M79 15H82.5V16.5C83.167 15.5 84.3 15 86 15C88.5 15 90 16.5 90 19.5V25H86.5V20C86.5 18.8 86 18 84.75 18C83.5 18 82.5 18.8 82.5 20.5V25H79V15Z" fill="#005587"/>
  <path d="M91.5 20C91.5 17 93.5 15 96.5 15C99.5 15 101.5 17 101.5 20C101.5 23 99.5 25 96.5 25C93.5 25 91.5 23 91.5 20ZM98 20C98 18.5 97.3 17.5 96 17.5C94.7 17.5 94 18.5 94 20C94 21.5 94.7 22.5 96 22.5C97.3 22.5 98 21.5 98 20Z" fill="#005587"/>
  <path d="M103 15H106.5V16.5C107.167 15.5 108.3 15 110 15C112.5 15 114 16.5 114 19.5V25H110.5V20C110.5 18.8 110 18 108.75 18C107.5 18 106.5 18.8 106.5 20.5V25H103V15Z" fill="#005587"/>
</svg>
