<?xml version="1.0" standalone="no"?>
<!DOCTYPE svg PUBLIC "-//W3C//DTD SVG 20010904//EN"
 "http://www.w3.org/TR/2001/REC-SVG-20010904/DTD/svg10.dtd">
<svg version="1.0" xmlns="http://www.w3.org/2000/svg"
 width="940.000000pt" height="788.000000pt" viewBox="0 0 940.000000 788.000000"
 preserveAspectRatio="xMidYMid meet">

<g transform="translate(0.000000,788.000000) scale(0.100000,-0.100000)"
fill="#000000" stroke="none">
<path d="M4184 4647 c-2 -7 -3 -98 -2 -202 l3 -190 352 -5 351 -5 -384 -544
-384 -544 0 -84 0 -83 810 0 810 0 0 200 0 200 -393 2 -394 3 384 543 383 543
0 89 0 90 -765 0 c-613 0 -767 -3 -771 -13z"/>
<path d="M6017 4653 c-4 -3 -7 -379 -7 -835 l0 -828 270 0 270 0 0 835 0 835
-263 0 c-145 0 -267 -3 -270 -7z"/>
<path d="M6934 4651 c-2 -2 -4 -377 -4 -833 l0 -828 413 0 c524 1 615 11 792
95 147 69 243 165 310 310 90 194 108 504 44 735 -53 194 -173 342 -340 424
-163 79 -218 88 -559 92 -162 2 -375 5 -473 7 -98 1 -181 0 -183 -2z m892
-436 c43 -22 68 -43 91 -79 52 -76 58 -111 58 -316 0 -214 -10 -259 -75 -333
-64 -73 -118 -91 -287 -95 l-143 -4 0 432 0 431 148 -3 c142 -3 151 -4 208
-33z"/>
<path d="M603 4568 c29 -46 178 -275 330 -510 l277 -426 0 -321 0 -321 265 0
265 0 0 323 0 322 301 470 c165 259 311 487 325 508 l24 37 -292 0 -293 -1
-156 -272 c-86 -150 -160 -271 -165 -271 -4 1 -78 124 -164 273 l-155 271
-308 0 -307 0 53 -82z"/>
<path d="M2515 3829 c-165 -452 -301 -826 -303 -830 -2 -5 120 -9 271 -9 l274
0 34 115 34 115 292 0 291 0 22 -72 c11 -40 27 -91 34 -113 l13 -40 281 -3
c165 -1 282 1 282 7 0 9 -549 1517 -591 1624 l-11 27 -312 0 -311 0 -300 -821z
m694 66 c45 -154 81 -284 81 -288 0 -4 -79 -7 -176 -7 -162 0 -175 1 -170 18
9 27 137 462 154 520 8 29 18 49 23 45 4 -4 44 -134 88 -288z"/>
</g>
</svg>
